<svg width="21" height="24" viewBox="0 0 21 24" fill="none" xmlns="http://www.w3.org/2000/svg">
<path fill-rule="evenodd" clip-rule="evenodd" d="M4.5582 5.6981C4.5582 8.84001 7.11438 11.396 10.2563 11.396C13.3982 11.396 15.9544 8.84001 15.9544 5.6981C15.9544 2.55618 13.3982 0 10.2563 0C7.11438 0 4.5582 2.55618 4.5582 5.6981ZM6.26761 5.6981C6.26761 3.49853 8.05693 1.70941 10.2563 1.70941C12.4556 1.70941 14.245 3.49853 14.245 5.6981C14.245 7.89746 12.4556 9.68658 10.2563 9.68658C8.05693 9.68658 6.26761 7.89746 6.26761 5.6981Z" fill="white"/>
<path fill-rule="evenodd" clip-rule="evenodd" d="M0.854704 23.02H19.6582C20.13 23.02 20.5129 22.6371 20.5129 22.1653V18.1766C20.5129 15.192 18.0844 12.7636 15.0998 12.7636H5.41306C2.42848 12.7636 0 15.192 0 18.1766V22.1653C0 22.6371 0.382906 23.02 0.854704 23.02ZM18.8035 21.3106H1.70941V18.1766C1.70941 16.1346 3.37103 14.473 5.41306 14.473H15.0998C17.1419 14.473 18.8035 16.1346 18.8035 18.1766V21.3106Z" fill="white"/>
</svg>
